<svg width="134" height="40" viewBox="0 0 134 40" fill="none" xmlns="http://www.w3.org/2000/svg">
<rect x="0.5" y="0.5" width="133" height="39" rx="7.5" fill="#323232"/>
<rect x="0.5" y="0.5" width="133" height="39" rx="7.5" stroke="#404040"/>
<mask id="mask0_1250_9586" style="mask-type:alpha" maskUnits="userSpaceOnUse" x="55" y="8" width="24" height="24">
<rect x="55" y="8" width="24" height="24" fill="#D9D9D9"/>
</mask>
<g mask="url(#mask0_1250_9586)">
<path d="M62 26C61.7167 26 61.4792 25.9042 61.2875 25.7125C61.0958 25.5208 61 25.2833 61 25V23H74V14H76C76.2833 14 76.5208 14.0958 76.7125 14.2875C76.9042 14.4792 77 14.7167 77 15V27.575C77 28.025 76.7958 28.3375 76.3875 28.5125C75.9792 28.6875 75.6167 28.6167 75.3 28.3L73 26H62ZM61 21L58.7 23.3C58.3833 23.6167 58.0208 23.6875 57.6125 23.5125C57.2042 23.3375 57 23.025 57 22.575V11C57 10.7167 57.0958 10.4792 57.2875 10.2875C57.4792 10.0958 57.7167 10 58 10H71C71.2833 10 71.5208 10.0958 71.7125 10.2875C71.9042 10.4792 72 10.7167 72 11V20C72 20.2833 71.9042 20.5208 71.7125 20.7125C71.5208 20.9042 71.2833 21 71 21H61Z" fill="white"/>
</g>
</svg>
