<svg width="36" height="36" viewBox="0 0 36 36" fill="none" xmlns="http://www.w3.org/2000/svg">
<rect x="-0.5" y="0.5" width="35" height="35" rx="17.5" transform="matrix(-1 0 0 1 35 0)" fill="white" fill-opacity="0.1"/>
<rect x="-0.5" y="0.5" width="35" height="35" rx="17.5" transform="matrix(-1 0 0 1 35 0)" stroke="#404040"/>
<path d="M13.2934 17.2941C12.9027 17.6848 12.9027 18.3191 13.2934 18.7098L19.2934 24.7098C19.684 25.1004 20.3184 25.1004 20.709 24.7098C21.0996 24.3191 21.0996 23.6848 20.709 23.2941L15.4152 18.0004L20.7059 12.7066C21.0965 12.316 21.0965 11.6816 20.7059 11.291C20.3152 10.9004 19.6809 10.9004 19.2902 11.291L13.2902 17.291L13.2934 17.2941Z" fill="white"/>
</svg>
