<svg width="134" height="40" viewBox="0 0 134 40" fill="none" xmlns="http://www.w3.org/2000/svg">
<rect x="0.5" y="0.5" width="133" height="39" rx="7.5" fill="#323232"/>
<rect x="0.5" y="0.5" width="133" height="39" rx="7.5" stroke="#404040"/>
<mask id="mask0_1250_9600" style="mask-type:alpha" maskUnits="userSpaceOnUse" x="55" y="8" width="24" height="24">
<rect x="55" y="8" width="24" height="24" fill="#D9D9D9"/>
</mask>
<g mask="url(#mask0_1250_9600)">
<path d="M61 22C60.45 22 59.9792 21.8042 59.5875 21.4125C59.1958 21.0208 59 20.55 59 20C59 19.45 59.1958 18.9792 59.5875 18.5875C59.9792 18.1958 60.45 18 61 18C61.55 18 62.0208 18.1958 62.4125 18.5875C62.8042 18.9792 63 19.45 63 20C63 20.55 62.8042 21.0208 62.4125 21.4125C62.0208 21.8042 61.55 22 61 22ZM67 22C66.45 22 65.9792 21.8042 65.5875 21.4125C65.1958 21.0208 65 20.55 65 20C65 19.45 65.1958 18.9792 65.5875 18.5875C65.9792 18.1958 66.45 18 67 18C67.55 18 68.0208 18.1958 68.4125 18.5875C68.8042 18.9792 69 19.45 69 20C69 20.55 68.8042 21.0208 68.4125 21.4125C68.0208 21.8042 67.55 22 67 22ZM73 22C72.45 22 71.9792 21.8042 71.5875 21.4125C71.1958 21.0208 71 20.55 71 20C71 19.45 71.1958 18.9792 71.5875 18.5875C71.9792 18.1958 72.45 18 73 18C73.55 18 74.0208 18.1958 74.4125 18.5875C74.8042 18.9792 75 19.45 75 20C75 20.55 74.8042 21.0208 74.4125 21.4125C74.0208 21.8042 73.55 22 73 22Z" fill="white"/>
</g>
</svg>
