<svg width="134" height="40" viewBox="0 0 134 40" fill="none" xmlns="http://www.w3.org/2000/svg">
<rect x="0.5" y="0.5" width="133" height="39" rx="7.5" fill="#323232"/>
<rect x="0.5" y="0.5" width="133" height="39" rx="7.5" stroke="#404040"/>
<mask id="mask0_1250_9582" style="mask-type:alpha" maskUnits="userSpaceOnUse" x="55" y="8" width="24" height="24">
<rect x="55" y="8" width="24" height="24" fill="#D9D9D9"/>
</mask>
<g mask="url(#mask0_1250_9582)">
<path d="M73 22V19H70V17H73V14H75V17H78V19H75V22H73ZM64 20C62.9 20 61.9583 19.6083 61.175 18.825C60.3917 18.0417 60 17.1 60 16C60 14.9 60.3917 13.9583 61.175 13.175C61.9583 12.3917 62.9 12 64 12C65.1 12 66.0417 12.3917 66.825 13.175C67.6083 13.9583 68 14.9 68 16C68 17.1 67.6083 18.0417 66.825 18.825C66.0417 19.6083 65.1 20 64 20ZM56 28V25.2C56 24.6333 56.1458 24.1125 56.4375 23.6375C56.7292 23.1625 57.1167 22.8 57.6 22.55C58.6333 22.0333 59.6833 21.6458 60.75 21.3875C61.8167 21.1292 62.9 21 64 21C65.1 21 66.1833 21.1292 67.25 21.3875C68.3167 21.6458 69.3667 22.0333 70.4 22.55C70.8833 22.8 71.2708 23.1625 71.5625 23.6375C71.8542 24.1125 72 24.6333 72 25.2V28H56ZM58 26H70V25.2C70 25.0167 69.9542 24.85 69.8625 24.7C69.7708 24.55 69.65 24.4333 69.5 24.35C68.6 23.9 67.6917 23.5625 66.775 23.3375C65.8583 23.1125 64.9333 23 64 23C63.0667 23 62.1417 23.1125 61.225 23.3375C60.3083 23.5625 59.4 23.9 58.5 24.35C58.35 24.4333 58.2292 24.55 58.1375 24.7C58.0458 24.85 58 25.0167 58 25.2V26ZM64 18C64.55 18 65.0208 17.8042 65.4125 17.4125C65.8042 17.0208 66 16.55 66 16C66 15.45 65.8042 14.9792 65.4125 14.5875C65.0208 14.1958 64.55 14 64 14C63.45 14 62.9792 14.1958 62.5875 14.5875C62.1958 14.9792 62 15.45 62 16C62 16.55 62.1958 17.0208 62.5875 17.4125C62.9792 17.8042 63.45 18 64 18Z" fill="white"/>
</g>
</svg>
