<svg width="134" height="40" viewBox="0 0 134 40" fill="none" xmlns="http://www.w3.org/2000/svg">
<rect x="0.5" y="0.5" width="133" height="39" rx="7.5" fill="#323232"/>
<rect x="0.5" y="0.5" width="133" height="39" rx="7.5" stroke="#404040"/>
<mask id="mask0_1250_9590" style="mask-type:alpha" maskUnits="userSpaceOnUse" x="55" y="8" width="24" height="24">
<rect x="55" y="8" width="24" height="24" fill="#D9D9D9"/>
</mask>
<g mask="url(#mask0_1250_9590)">
<path d="M66.7917 30.4202C66.6502 30.7502 66.4057 30.9534 66.058 31.03C65.7104 31.1067 65.4069 31.0153 65.1476 30.756L61.9657 27.5741L66.2083 20.503L59.1372 24.7456L55.9553 21.5637C55.696 21.3044 55.6046 21.0009 55.6813 20.6533C55.7579 20.3056 55.9611 20.0611 56.2911 19.9196L71.7768 13.6264C72.201 13.4614 72.5664 13.5321 72.8728 13.8385C73.1792 14.1449 73.2499 14.5103 73.0849 14.9345L66.7917 30.4202Z" fill="white"/>
</g>
</svg>
